<svg width="47" height="45" viewBox="0 0 47 45" fill="none" xmlns="http://www.w3.org/2000/svg">
<path d="M46.2919 22.1328L26.0231 1.87455L24.6645 0.515957C24.355 0.208446 23.9364 0.0358582 23.5 0.0358582C23.0637 0.0358582 22.6451 0.208446 22.3355 0.515957L0.70818 22.1328C0.390988 22.4488 0.140306 22.8251 -0.029069 23.2395C-0.198444 23.6539 -0.28308 24.0981 -0.277981 24.5458C-0.256999 26.3922 1.27994 27.8662 3.12637 27.8662H5.35572V44.9509H41.6443V27.8662H43.9209C44.8179 27.8662 45.6624 27.5147 46.2971 26.88C46.6097 26.5685 46.8573 26.1981 47.0257 25.7902C47.194 25.3823 47.2798 24.9451 47.278 24.5038C47.278 23.6121 46.9266 22.7675 46.2919 22.1328ZM26.4375 41.1741H20.5625V30.4732H26.4375V41.1741ZM37.8676 24.0894V41.1741H29.7947V29.2143C29.7947 28.055 28.8557 27.1161 27.6965 27.1161H19.3036C18.1443 27.1161 17.2054 28.055 17.2054 29.2143V41.1741H9.13251V24.0894H4.0968L23.5053 4.69665L24.717 5.90837L42.9085 24.0894H37.8676Z" fill="#F4F4F4"/>
</svg>
