<svg width="47" height="47" viewBox="0 0 47 47" fill="none" xmlns="http://www.w3.org/2000/svg">
<g clip-path="url(#clip0_0_70)">
<path d="M26.6997 18.7266C25.488 18.7266 24.5491 19.6655 24.5491 20.8248C24.5491 21.984 25.488 22.923 26.6997 22.923C27.8066 22.923 28.7455 21.984 28.7455 20.8248C28.7455 19.6655 27.8066 18.7266 26.6997 18.7266ZM12.0122 18.7266C10.8005 18.7266 9.86157 19.6655 9.86157 20.8248C9.86157 21.984 10.8005 22.923 12.0122 22.923C13.1191 22.923 14.058 21.984 14.058 20.8248C14.058 19.6655 13.1191 18.7266 12.0122 18.7266Z" fill="#F4F4F4"/>
<path d="M43.538 14.74C41.1111 11.3993 37.6116 8.99226 33.6239 7.92076V7.92601C32.7269 6.92935 31.7145 6.01138 30.5815 5.19308C21.9946 -1.04911 9.94032 0.855024 3.67191 9.44197C-1.37954 16.4185 -1.16448 25.8028 3.98664 32.4699L4.0286 39.4254C4.0286 39.5933 4.05483 39.7612 4.10729 39.9185C4.17327 40.1287 4.28004 40.3239 4.4215 40.4927C4.56297 40.6616 4.73634 40.801 4.93171 40.9028C5.12708 41.0046 5.3406 41.0669 5.56007 41.0862C5.77955 41.1054 6.00065 41.0812 6.21075 41.0148L12.8516 38.9219C14.6088 39.5461 16.4238 39.9028 18.2283 40.0025L18.202 40.0234C22.8758 43.4278 29.0026 44.4507 34.6206 42.5938L41.2876 44.7654C41.4555 44.8179 41.6286 44.8493 41.807 44.8493C42.7354 44.8493 43.4855 44.0992 43.4855 43.1708V36.1417C48.1068 29.8681 48.2275 21.1972 43.538 14.74ZM13.586 35.1975L12.9565 34.9353L7.76342 36.5614L7.71097 31.106L7.29133 30.6339C2.8536 25.2205 2.55985 17.4204 6.71432 11.6975C11.771 4.76295 21.4648 3.23125 28.3784 8.23549C35.313 13.2765 36.8499 22.9545 31.8404 29.8471C27.6388 35.6119 20.1167 37.7416 13.586 35.1975ZM40.0759 34.3058L39.6563 34.8304L39.7087 40.2857L34.5681 38.5547L33.9386 38.817C31.0011 39.908 27.8696 39.9972 24.9688 39.1842L24.9583 39.1789C28.9451 37.9563 32.4276 35.4733 34.8828 32.1027C38.8904 26.5791 39.5409 19.6393 37.2119 13.7223L37.2433 13.7433C38.4498 14.6088 39.5566 15.6894 40.4956 16.9955C44.3038 22.2201 44.0888 29.333 40.0759 34.3058Z" fill="#F4F4F4"/>
<path d="M19.356 18.7266C18.1443 18.7266 17.2053 19.6655 17.2053 20.8248C17.2053 21.984 18.1443 22.923 19.356 22.923C20.4628 22.923 21.4018 21.984 21.4018 20.8248C21.4018 19.6655 20.4628 18.7266 19.356 18.7266Z" fill="#F4F4F4"/>
</g>
<defs>
<clipPath id="clip0_0_70">
<rect width="47" height="47" fill="white"/>
</clipPath>
</defs>
</svg>
